<svg width="24" height="24" viewBox="0 0 24 24" fill="none" xmlns="http://www.w3.org/2000/svg">
<path d="M21 12C21.0002 13.5806 20.5841 15.1333 19.7937 16.502C19.0033 17.8708 17.8663 19.0072 16.4972 19.797C15.1281 20.5868 13.5752 21.0021 11.9946 21.0011C10.414 21.0002 8.86158 20.583 7.49344 19.7916L3.98813 20.9606C3.85598 21.0047 3.71417 21.0111 3.57859 20.9791C3.44301 20.9471 3.31903 20.878 3.22052 20.7795C3.12202 20.681 3.0529 20.557 3.02091 20.4214C2.98891 20.2858 2.99531 20.144 3.03938 20.0119L4.20844 16.5066C3.51741 15.3113 3.11064 13.9731 3.01959 12.5955C2.92854 11.2179 3.15566 9.83775 3.68337 8.56195C4.21108 7.28615 5.02523 6.14886 6.06284 5.23807C7.10044 4.32729 8.33367 3.66744 9.66711 3.30956C11.0006 2.95169 12.3985 2.9054 13.7527 3.17426C15.1069 3.44312 16.381 4.01994 17.4766 4.86007C18.5722 5.70021 19.4598 6.78114 20.0708 8.01923C20.6818 9.25732 20.9997 10.6194 21 12Z" fill="black" fill-opacity="0.04"/>
<path d="M12 2.25C10.3167 2.24963 8.66195 2.68508 7.19686 3.51396C5.73177 4.34285 4.50623 5.53692 3.63954 6.97997C2.77284 8.42301 2.29451 10.0659 2.25111 11.7486C2.20771 13.4314 2.60072 15.0967 3.39187 16.5825L2.32781 19.7747C2.23967 20.039 2.22688 20.3226 2.29087 20.5938C2.35486 20.8649 2.49311 21.1129 2.69011 21.3099C2.88711 21.5069 3.13509 21.6451 3.40624 21.7091C3.6774 21.7731 3.96102 21.7603 4.22531 21.6722L7.4175 20.6081C8.7251 21.3036 10.1739 21.6921 11.6541 21.744C13.1342 21.7959 14.6067 21.51 15.9599 20.9079C17.313 20.3057 18.5112 19.4033 19.4634 18.269C20.4157 17.1346 21.0971 15.7983 21.4557 14.3613C21.8144 12.9244 21.841 11.4246 21.5336 9.97578C21.2261 8.527 20.5926 7.16731 19.6812 5.99992C18.7697 4.83253 17.6043 3.88811 16.2734 3.23836C14.9425 2.58861 13.481 2.25061 12 2.25ZM12 20.25C10.5497 20.251 9.12478 19.8691 7.86937 19.1428C7.75544 19.0767 7.6261 19.0418 7.49437 19.0416C7.41369 19.0416 7.33356 19.0549 7.25719 19.0809L3.75 20.25L4.91906 16.7438C4.95276 16.643 4.96467 16.5362 4.954 16.4305C4.94334 16.3248 4.91034 16.2226 4.85719 16.1306C3.94779 14.5584 3.58266 12.7299 3.81846 10.929C4.05426 9.12801 4.87781 7.4552 6.16133 6.17006C7.44486 4.88491 9.11662 4.05925 10.9173 3.82118C12.7179 3.5831 14.5468 3.94591 16.1202 4.85333C17.6937 5.76074 18.9237 7.16204 19.6194 8.83983C20.3151 10.5176 20.4378 12.3781 19.9682 14.1327C19.4987 15.8873 18.4632 17.4379 17.0225 18.5439C15.5818 19.65 13.8163 20.2497 12 20.25ZM15.75 10.5C15.75 10.6989 15.671 10.8897 15.5303 11.0303C15.3897 11.171 15.1989 11.25 15 11.25H9C8.80109 11.25 8.61032 11.171 8.46967 11.0303C8.32902 10.8897 8.25 10.6989 8.25 10.5C8.25 10.3011 8.32902 10.1103 8.46967 9.96967C8.61032 9.82902 8.80109 9.75 9 9.75H15C15.1989 9.75 15.3897 9.82902 15.5303 9.96967C15.671 10.1103 15.75 10.3011 15.75 10.5ZM15.75 13.5C15.75 13.6989 15.671 13.8897 15.5303 14.0303C15.3897 14.171 15.1989 14.25 15 14.25H9C8.80109 14.25 8.61032 14.171 8.46967 14.0303C8.32902 13.8897 8.25 13.6989 8.25 13.5C8.25 13.3011 8.32902 13.1103 8.46967 12.9697C8.61032 12.829 8.80109 12.75 9 12.75H15C15.1989 12.75 15.3897 12.829 15.5303 12.9697C15.671 13.1103 15.75 13.3011 15.75 13.5Z" fill="#5F6388"/>
</svg>
