<svg width="24" height="24" viewBox="0 0 24 24" fill="none" xmlns="http://www.w3.org/2000/svg">
<path d="M12 4.5C12 4.94501 11.868 5.38002 11.6208 5.75003C11.3736 6.12004 11.0222 6.40843 10.611 6.57873C10.1999 6.74903 9.74751 6.79358 9.31105 6.70677C8.87459 6.61995 8.47368 6.40566 8.15901 6.09099C7.84434 5.77632 7.63005 5.37541 7.54323 4.93895C7.45642 4.5025 7.50097 4.0501 7.67127 3.63896C7.84157 3.22783 8.12996 2.87643 8.49997 2.62919C8.86998 2.38196 9.30499 2.25 9.75 2.25C10.3467 2.25 10.919 2.48705 11.341 2.90901C11.7629 3.33097 12 3.90326 12 4.5Z" fill="black" fill-opacity="0.04"/>
<path d="M23.9616 17.7628C23.9304 17.6694 23.8812 17.583 23.8166 17.5086C23.7521 17.4342 23.6735 17.3732 23.5854 17.3291C23.4973 17.2851 23.4014 17.2588 23.3032 17.2518C23.2049 17.2449 23.1063 17.2573 23.0128 17.2885L21.3797 17.8331L18.6703 12.4144C18.608 12.2899 18.5123 12.1852 18.394 12.1121C18.2756 12.0389 18.1392 12.0001 18 12H10.5V9.75001H15.75C15.9489 9.75001 16.1397 9.671 16.2803 9.53034C16.421 9.38969 16.5 9.19893 16.5 9.00001C16.5 8.8011 16.421 8.61034 16.2803 8.46968C16.1397 8.32903 15.9489 8.25001 15.75 8.25001H10.5V7.40626C11.207 7.22372 11.8231 6.78959 12.2329 6.18526C12.6428 5.58092 12.8181 4.84787 12.7261 4.12351C12.6341 3.39915 12.2811 2.73321 11.7332 2.25052C11.1853 1.76783 10.4802 1.50153 9.75 1.50153C9.01982 1.50153 8.3147 1.76783 7.76682 2.25052C7.21894 2.73321 6.86591 3.39915 6.77391 4.12351C6.6819 4.84787 6.85724 5.58092 7.26705 6.18526C7.67686 6.78959 8.293 7.22372 9 7.40626V8.4197C7.38287 8.78931 5.95846 9.74145 4.99865 11.0944C4.03883 12.4474 3.61083 14.1064 3.79632 15.7548C3.98181 17.4032 4.7678 18.9256 6.00429 20.0314C7.24078 21.1373 8.84117 21.749 10.5 21.75C13.6425 21.75 16.4709 19.621 17.2266 16.6875C17.2512 16.5921 17.2568 16.4928 17.243 16.3952C17.2292 16.2976 17.1964 16.2037 17.1463 16.1188C17.0963 16.034 17.03 15.9598 16.9513 15.9005C16.8725 15.8412 16.7829 15.7981 16.6875 15.7735C16.5921 15.7488 16.4928 15.7432 16.3952 15.757C16.2976 15.7708 16.2037 15.8036 16.1188 15.8537C16.0339 15.9037 15.9598 15.97 15.9005 16.0487C15.8412 16.1275 15.7981 16.2171 15.7734 16.3125C15.1959 18.5625 12.9291 20.25 10.5 20.25C9.23925 20.2496 8.02075 19.7955 7.06721 18.9707C6.11368 18.1459 5.4888 17.0055 5.30677 15.758C5.12475 14.5105 5.39774 13.2391 6.07586 12.1762C6.75398 11.1134 7.79193 10.33 9 9.96939V12.75C9 12.9489 9.07902 13.1397 9.21967 13.2803C9.36032 13.421 9.55109 13.5 9.75 13.5H17.5359L20.3287 19.0856C20.4097 19.247 20.5461 19.3738 20.713 19.4427C20.8799 19.5116 21.066 19.5179 21.2372 19.4606L23.4872 18.7106C23.6757 18.6477 23.8315 18.5126 23.9205 18.3349C24.0094 18.1572 24.0242 17.9514 23.9616 17.7628ZM8.25 4.50001C8.25 4.20334 8.33797 3.91333 8.50279 3.66666C8.66762 3.41998 8.90188 3.22773 9.17597 3.11419C9.45006 3.00066 9.75166 2.97096 10.0426 3.02884C10.3336 3.08671 10.6009 3.22957 10.8107 3.43935C11.0204 3.64913 11.1633 3.91641 11.2212 4.20738C11.2791 4.49835 11.2493 4.79995 11.1358 5.07404C11.0223 5.34813 10.83 5.5824 10.5834 5.74722C10.3367 5.91204 10.0467 6.00001 9.75 6.00001C9.35217 6.00001 8.97064 5.84198 8.68934 5.56067C8.40803 5.27937 8.25 4.89784 8.25 4.50001Z" fill="#5F6388"/>
</svg>
