<svg width="24" height="24" viewBox="0 0 24 24" fill="none" xmlns="http://www.w3.org/2000/svg">
<path d="M9.375 10.9153C9.48904 10.8495 9.58373 10.7548 9.64956 10.6407C9.71539 10.5267 9.75003 10.3973 9.75 10.2656V3.51563C9.74933 3.39605 9.72008 3.27837 9.66469 3.1724C9.6093 3.06643 9.52937 2.97523 9.43157 2.90643C9.33378 2.83762 9.22095 2.7932 9.10249 2.77686C8.98404 2.76052 8.8634 2.77274 8.75062 2.8125C6.56154 3.58726 4.72061 5.11748 3.55877 7.12807C2.39692 9.13865 1.99037 11.4977 2.41219 13.7813C2.43405 13.8993 2.48395 14.0104 2.55769 14.1052C2.63143 14.2 2.72686 14.2757 2.83594 14.3259C2.93424 14.3719 3.04148 14.3956 3.15 14.3953C3.28164 14.3954 3.41097 14.3608 3.525 14.295L9.375 10.9153ZM8.25 4.65188V9.8325L3.76125 12.4228C3.75 12.2813 3.75 12.1388 3.75 12C3.75133 10.4797 4.17215 8.98928 4.96612 7.69279C5.76009 6.3963 6.89642 5.34404 8.25 4.65188ZM21.75 12C21.7507 14.1404 21.0471 16.2216 19.7477 17.9225C18.4483 19.6234 16.6252 20.8493 14.5599 21.4113C12.4945 21.9733 10.3017 21.84 8.31959 21.0321C6.33751 20.2241 4.67638 18.7863 3.5925 16.9406C3.54197 16.8554 3.50884 16.761 3.49502 16.6628C3.48121 16.5647 3.48697 16.4648 3.51199 16.3689C3.53701 16.273 3.58079 16.183 3.64079 16.1041C3.70079 16.0253 3.77582 15.9591 3.86156 15.9094L11.25 11.6091V3C11.25 2.80109 11.329 2.61032 11.4697 2.46967C11.6103 2.32902 11.8011 2.25 12 2.25C13.7014 2.25087 15.3731 2.69675 16.8489 3.54338C18.3248 4.39001 19.5535 5.60794 20.4131 7.07625C20.4234 7.09125 20.4328 7.10625 20.4422 7.12219C20.4516 7.13813 20.4609 7.15688 20.4694 7.17375C21.3106 8.64297 21.7522 10.307 21.75 12Z" fill="#5F6388"/>
</svg>
