<svg width="24" height="24" viewBox="0 0 24 24" fill="none" xmlns="http://www.w3.org/2000/svg">
<path d="M12 7.5L9.19969 9.6C9.06987 9.69737 8.91197 9.75 8.74969 9.75H3V6C3 5.80109 3.07902 5.61032 3.21967 5.46967C3.36032 5.32902 3.55109 5.25 3.75 5.25H8.74969C8.91197 5.25 9.06987 5.30263 9.19969 5.4L12 7.5Z" fill="black" fill-opacity="0.04"/>
<path d="M20.25 6.75H12.2503L9.64969 4.8C9.38967 4.60599 9.07411 4.5008 8.74969 4.5H3.75C3.35218 4.5 2.97064 4.65804 2.68934 4.93934C2.40804 5.22064 2.25 5.60218 2.25 6V18.75C2.25 19.1478 2.40804 19.5294 2.68934 19.8107C2.97064 20.092 3.35218 20.25 3.75 20.25H20.25C20.6478 20.25 21.0294 20.092 21.3107 19.8107C21.592 19.5294 21.75 19.1478 21.75 18.75V8.25C21.75 7.85218 21.592 7.47064 21.3107 7.18934C21.0294 6.90804 20.6478 6.75 20.25 6.75ZM3.75 6H8.74969L10.7503 7.5L8.74969 9H3.75V6ZM20.25 18.75H3.75V10.5H8.74969C9.07411 10.4992 9.38967 10.394 9.64969 10.2L12.2503 8.25H20.25V18.75Z" fill="#5F6388"/>
</svg>
