<svg width="24" height="24" viewBox="0 0 24 24" fill="none" xmlns="http://www.w3.org/2000/svg">
<path d="M20.61 6.85876L12.36 2.34376C12.2496 2.28336 12.1258 2.25171 12 2.25171C11.8742 2.25171 11.7504 2.28336 11.64 2.34376L3.39 6.86063C3.2722 6.92509 3.17386 7.01999 3.10526 7.13543C3.03666 7.25086 3.0003 7.3826 3 7.51688V16.4831C3.0003 16.6174 3.03666 16.7492 3.10526 16.8646C3.17386 16.98 3.2722 17.0749 3.39 17.1394L11.64 21.6563C11.7504 21.7167 11.8742 21.7483 12 21.7483C12.1258 21.7483 12.2496 21.7167 12.36 21.6563L20.61 17.1394C20.7278 17.0749 20.8261 16.98 20.8947 16.8646C20.9633 16.7492 20.9997 16.6174 21 16.4831V7.51688C21 7.38228 20.9638 7.25015 20.8952 7.13436C20.8266 7.01856 20.7281 6.92337 20.61 6.85876ZM12 15.75C11.2583 15.75 10.5333 15.5301 9.91661 15.118C9.29993 14.706 8.81928 14.1203 8.53545 13.4351C8.25162 12.7498 8.17736 11.9958 8.32205 11.2684C8.46675 10.541 8.8239 9.8728 9.34835 9.34836C9.8728 8.82391 10.541 8.46676 11.2684 8.32206C11.9958 8.17737 12.7498 8.25163 13.4351 8.53546C14.1203 8.81929 14.706 9.29994 15.118 9.91662C15.5301 10.5333 15.75 11.2583 15.75 12C15.75 12.9946 15.3549 13.9484 14.6517 14.6517C13.9484 15.3549 12.9946 15.75 12 15.75Z" fill="black" fill-opacity="0.04"/>
<path d="M12 7.50002C11.11 7.50002 10.24 7.76394 9.49993 8.2584C8.75991 8.75287 8.18314 9.45567 7.84254 10.2779C7.50195 11.1002 7.41283 12.005 7.58647 12.8779C7.7601 13.7508 8.18868 14.5527 8.81802 15.182C9.44736 15.8113 10.2492 16.2399 11.1221 16.4136C11.995 16.5872 12.8998 16.4981 13.7221 16.1575C14.5443 15.8169 15.2471 15.2401 15.7416 14.5001C16.2361 13.7601 16.5 12.89 16.5 12C16.4985 10.807 16.0239 9.66327 15.1803 8.81968C14.3367 7.97609 13.193 7.50151 12 7.50002ZM12 15C11.4067 15 10.8266 14.8241 10.3333 14.4944C9.83994 14.1648 9.45542 13.6962 9.22836 13.1481C9.0013 12.5999 8.94189 11.9967 9.05764 11.4147C9.1734 10.8328 9.45912 10.2983 9.87868 9.8787C10.2982 9.45914 10.8328 9.17342 11.4147 9.05766C11.9967 8.94191 12.5999 9.00132 13.148 9.22838C13.6962 9.45544 14.1648 9.83996 14.4944 10.3333C14.8241 10.8267 15 11.4067 15 12C15 12.7957 14.6839 13.5587 14.1213 14.1213C13.5587 14.6839 12.7956 15 12 15ZM20.97 6.20158L12.72 1.68752C12.4996 1.56572 12.2518 1.50183 12 1.50183C11.7482 1.50183 11.5004 1.56572 11.28 1.68752L3.03 6.20345C2.7944 6.33236 2.59772 6.52217 2.46052 6.75304C2.32331 6.98391 2.25061 7.24739 2.25 7.51595V16.4822C2.25061 16.7508 2.32331 17.0142 2.46052 17.2451C2.59772 17.476 2.7944 17.6658 3.03 17.7947L11.28 22.3106C11.5004 22.4324 11.7482 22.4963 12 22.4963C12.2518 22.4963 12.4996 22.4324 12.72 22.3106L20.97 17.7947C21.2056 17.6658 21.4023 17.476 21.5395 17.2451C21.6767 17.0142 21.7494 16.7508 21.75 16.4822V7.51689C21.7499 7.24785 21.6774 6.98379 21.5402 6.75238C21.403 6.52096 21.206 6.33072 20.97 6.20158ZM12 21L3.75 16.4831V7.51689L12 3.00002L20.25 7.51595V16.4813L12 21Z" fill="#5F6388"/>
</svg>
